HIERARCHY
ROOT ZeroOut_JNT
{
  OFFSET 0 0 0
  CHANNELS 6 Xposition Yposition Zposition Zrotation Xrotation Yrotation
  JOINT SpineFinal_1_JNT
  {
    OFFSET 0 59.8141 -42.9993
    CHANNELS 6 Xposition Yposition Zposition Zrotation Xrotation Yrotation
    JOINT l_legIKClavicle_Root_JNT
    {
      OFFSET -0.323145 -1.55994 9.59625
      CHANNELS 6 Xposition Yposition Zposition Zrotation Xrotation Yrotation
      JOINT l_legBlendRoot_JNT
      {
        OFFSET 16.1374 0 0
        CHANNELS 6 Xposition Yposition Zposition Zrotation Xrotation Yrotation
        JOINT l_legBlendMiddle_JNT
        {
          OFFSET 27.0969 0 0
          CHANNELS 6 Xposition Yposition Zposition Zrotation Xrotation Yrotation
          JOINT l_legBlendEnd_JNT
          {
            OFFSET 24.8414 0 0
            CHANNELS 6 Xposition Yposition Zposition Zrotation Xrotation Yrotation
            JOINT l_legBlendTip_JNT
            {
              OFFSET 6.77858 0 0
              CHANNELS 6 Xposition Yposition Zposition Zrotation Xrotation Yrotation
              End Site
              {
                OFFSET 0 0 0
              }
            }
          }
        }
      }
    }
    JOINT SpineFinal_2_JNT
    {
      OFFSET -19.5366 0.0587492 -0.00256357
      CHANNELS 6 Xposition Yposition Zposition Zrotation Xrotation Yrotation
      JOINT SpineFinal_3_JNT
      {
        OFFSET -19.4679 1.47333 -0.00136182
        CHANNELS 6 Xposition Yposition Zposition Zrotation Xrotation Yrotation
        JOINT SpineFinal_4_JNT
        {
          OFFSET -18.2335 5.20609 0
          CHANNELS 6 Xposition Yposition Zposition Zrotation Xrotation Yrotation
          JOINT SpineFinal_5_JNT
          {
            OFFSET -17.3574 8.01768 -1.82773e-005
            CHANNELS 6 Xposition Yposition Zposition Zrotation Xrotation Yrotation
            JOINT SpineFinal_6_JNT
            {
              OFFSET -19.144 8.35871 0
              CHANNELS 6 Xposition Yposition Zposition Zrotation Xrotation Yrotation
              JOINT SpineFinal_7_JNT
              {
                OFFSET -16.3943 7.24542 0
                CHANNELS 6 Xposition Yposition Zposition Zrotation Xrotation Yrotation
                JOINT SpineFinal_8_JNT
                {
                  OFFSET -19.3877 2.40349 0
                  CHANNELS 6 Xposition Yposition Zposition Zrotation Xrotation Yrotation
                  JOINT head_JNT
                  {
                    OFFSET -13.796 -11.6756 0
                    CHANNELS 6 Xposition Yposition Zposition Zrotation Xrotation Yrotation
                    JOINT l_hornRoot_JNT
                    {
                      OFFSET -15.825 14.8229 15.3879
                      CHANNELS 6 Xposition Yposition Zposition Zrotation Xrotation Yrotation
                      JOINT l_hornMid_JNT
                      {
                        OFFSET 6.55118 0 0
                        CHANNELS 6 Xposition Yposition Zposition Zrotation Xrotation Yrotation
                        JOINT l_hornEnd_JNT
                        {
                          OFFSET 6.73503 0 0
                          CHANNELS 6 Xposition Yposition Zposition Zrotation Xrotation Yrotation
                          End Site
                          {
                            OFFSET 0 0 0
                          }
                        }
                      }
                    }
                    JOINT headJend_JNT
                    {
                      OFFSET 1.34858 -27.5886 0
                      CHANNELS 6 Xposition Yposition Zposition Zrotation Xrotation Yrotation
                      End Site
                      {
                        OFFSET 0 0 0
                      }
                    }
                    JOINT r_hornRoot_JNT
                    {
                      OFFSET -15.825 14.8229 -15.3879
                      CHANNELS 6 Xposition Yposition Zposition Zrotation Xrotation Yrotation
                      JOINT r_hornMid_JNT
                      {
                        OFFSET -2.40814 5.46468 -2.69372
                        CHANNELS 6 Xposition Yposition Zposition Zrotation Xrotation Yrotation
                        JOINT r_hornEnd_JNT
                        {
                          OFFSET -2.40922 6.0083 -1.85921
                          CHANNELS 6 Xposition Yposition Zposition Zrotation Xrotation Yrotation
                          End Site
                          {
                            OFFSET 0 0 0
                          }
                        }
                      }
                    }
                    JOINT m_upLip_JNT
                    {
                      OFFSET 4.72477 -9.87974 0
                      CHANNELS 6 Xposition Yposition Zposition Zrotation Xrotation Yrotation
                      JOINT l_lipUpRoot_JNT
                      {
                        OFFSET 2.68891 -0.690234 4.02874
                        CHANNELS 6 Xposition Yposition Zposition Zrotation Xrotation Yrotation
                        JOINT l_lipUpEnd_JNT
                        {
                          OFFSET 0 0 -14.9226
                          CHANNELS 6 Xposition Yposition Zposition Zrotation Xrotation Yrotation
                          End Site
                          {
                            OFFSET 0 0 0
                          }
                        }
                      }
                      JOINT m_upLipRoot_JNT
                      {
                        OFFSET 0 0 3.94939
                        CHANNELS 6 Xposition Yposition Zposition Zrotation Xrotation Yrotation
                        JOINT m_upLipEnd_JNT
                        {
                          OFFSET 0 0 15.0019
                          CHANNELS 6 Xposition Yposition Zposition Zrotation Xrotation Yrotation
                          End Site
                          {
                            OFFSET 0 0 0
                          }
                        }
                      }
                      JOINT r_lipUpRoot_JNT
                      {
                        OFFSET -2.689 -0.690236 4.02875
                        CHANNELS 6 Xposition Yposition Zposition Zrotation Xrotation Yrotation
                        JOINT r_lipUpEnd_JNT
                        {
                          OFFSET 9.35075e-005 -0.000392738 14.9226
                          CHANNELS 6 Xposition Yposition Zposition Zrotation Xrotation Yrotation
                          End Site
                          {
                            OFFSET 0 0 0
                          }
                        }
                      }
                    }
                    JOINT m_DnLip_JNT
                    {
                      OFFSET 6.0207 -9.81639 0
                      CHANNELS 6 Xposition Yposition Zposition Zrotation Xrotation Yrotation
                      JOINT l_lipDn_JNT
                      {
                        OFFSET 2.71301 -0.162748 3.99146
                        CHANNELS 6 Xposition Yposition Zposition Zrotation Xrotation Yrotation
                        JOINT l_lipEnd_JNT
                        {
                          OFFSET 0 0 -14.9599
                          CHANNELS 6 Xposition Yposition Zposition Zrotation Xrotation Yrotation
                          End Site
                          {
                            OFFSET 0 0 0
                          }
                        }
                      }
                      JOINT m_dnLip_JNT
                      {
                        OFFSET 0 -0.0431035 3.99141
                        CHANNELS 6 Xposition Yposition Zposition Zrotation Xrotation Yrotation
                        JOINT m_dnLipEnd_JNT
                        {
                          OFFSET 0 0 14.9599
                          CHANNELS 6 Xposition Yposition Zposition Zrotation Xrotation Yrotation
                          End Site
                          {
                            OFFSET 0 0 0
                          }
                        }
                      }
                      JOINT r_lipDn_JNT
                      {
                        OFFSET -2.71301 -0.162761 3.99141
                        CHANNELS 6 Xposition Yposition Zposition Zrotation Xrotation Yrotation
                        JOINT r_lipDnEnd_JNT
                        {
                          OFFSET 0 0 14.9599
                          CHANNELS 6 Xposition Yposition Zposition Zrotation Xrotation Yrotation
                          End Site
                          {
                            OFFSET 0 0 0
                          }
                        }
                      }
                    }
                    JOINT l_lid_JNT
                    {
                      OFFSET -7.85698 -6.72885 9.63956
                      CHANNELS 6 Xposition Yposition Zposition Zrotation Xrotation Yrotation
                      End Site
                      {
                        OFFSET 0 0 0
                      }
                    }
                    JOINT r_lid_JNT
                    {
                      OFFSET -7.85684 -6.72882 -9.63956
                      CHANNELS 6 Xposition Yposition Zposition Zrotation Xrotation Yrotation
                      End Site
                      {
                        OFFSET 0 0 0
                      }
                    }
                  }
                }
              }
            }
            JOINT l_FwClavicleRoot_JNT
            {
              OFFSET -0.15532 -4.55898 6.72563
              CHANNELS 6 Xposition Yposition Zposition Zrotation Xrotation Yrotation
              JOINT l_FwLegBlendRoot_JNT
              {
                OFFSET 21.051 0 0
                CHANNELS 6 Xposition Yposition Zposition Zrotation Xrotation Yrotation
                JOINT l_FwLegBlendMiddle_JNT
                {
                  OFFSET 33.1145 0 0
                  CHANNELS 6 Xposition Yposition Zposition Zrotation Xrotation Yrotation
                  JOINT l_FwLegBlendTip_JNT
                  {
                    OFFSET 29.9221 0 0
                    CHANNELS 6 Xposition Yposition Zposition Zrotation Xrotation Yrotation
                    JOINT l_FwLegBlendEnd_JNT
                    {
                      OFFSET 9.62649 0 0
                      CHANNELS 6 Xposition Yposition Zposition Zrotation Xrotation Yrotation
                      End Site
                      {
                        OFFSET 0 0 0
                      }
                    }
                  }
                }
              }
            }
            JOINT r_FwClavicleRoot_JNT
            {
              OFFSET -0.15532 -4.55898 -6.72563
              CHANNELS 6 Xposition Yposition Zposition Zrotation Xrotation Yrotation
              JOINT r_FwLegBlendRoot_JNT
              {
                OFFSET 1.1653 -12.7157 -16.7361
                CHANNELS 6 Xposition Yposition Zposition Zrotation Xrotation Yrotation
                JOINT r_FwLegBlendMiddle_JNT
                {
                  OFFSET 16.2308 -5.97551 28.2387
                  CHANNELS 6 Xposition Yposition Zposition Zrotation Xrotation Yrotation
                  JOINT r_FwLegBlendTip_JNT
                  {
                    OFFSET 26.7017 -9.19239 -9.89204
                    CHANNELS 6 Xposition Yposition Zposition Zrotation Xrotation Yrotation
                    JOINT r_FwLegBlendEnd_JNT
                    {
                      OFFSET 4.44874 -7.74942 3.58114
                      CHANNELS 6 Xposition Yposition Zposition Zrotation Xrotation Yrotation
                      End Site
                      {
                        OFFSET 0 0 0
                      }
                    }
                  }
                }
              }
            }
          }
        }
      }
    }
    JOINT r_legIKClavicle_Root_JNT
    {
      OFFSET -0.323145 -1.55994 -9.59625
      CHANNELS 6 Xposition Yposition Zposition Zrotation Xrotation Yrotation
      JOINT r_legBlendRoot_JNT
      {
        OFFSET 13.2848 -5.74129 -7.13912
        CHANNELS 6 Xposition Yposition Zposition Zrotation Xrotation Yrotation
        JOINT r_legBlendMiddle_JNT
        {
          OFFSET 14.815 16.9375 15.0957
          CHANNELS 6 Xposition Yposition Zposition Zrotation Xrotation Yrotation
          JOINT r_legBlendEnd_JNT
          {
            OFFSET 23.6904 -6.58016 -3.54465
            CHANNELS 6 Xposition Yposition Zposition Zrotation Xrotation Yrotation
            JOINT r_legBlendTip_JNT
            {
              OFFSET 1.47758 -6.16068 -2.41079
              CHANNELS 6 Xposition Yposition Zposition Zrotation Xrotation Yrotation
              End Site
              {
                OFFSET 0 0 0
              }
            }
          }
        }
      }
    }
    JOINT tailRoot_JNT
    {
      OFFSET 2.82533 14.5514 0
      CHANNELS 6 Xposition Yposition Zposition Zrotation Xrotation Yrotation
      JOINT tailMid_JNT
      {
        OFFSET 7.87756 0 0
        CHANNELS 6 Xposition Yposition Zposition Zrotation Xrotation Yrotation
        JOINT tailEnd_JNT
        {
          OFFSET 6.52588 0 0
          CHANNELS 6 Xposition Yposition Zposition Zrotation Xrotation Yrotation
          End Site
          {
            OFFSET 0 0 0
          }
        }
      }
    }
    JOINT l_shoulderBkRoot_JNT
    {
      OFFSET -9.30511 7.998 11.2048
      CHANNELS 6 Xposition Yposition Zposition Zrotation Xrotation Yrotation
      JOINT l_shoulderBkMid_JNT
      {
        OFFSET 0 0 0
        CHANNELS 6 Xposition Yposition Zposition Zrotation Xrotation Yrotation
        End Site
        {
          OFFSET 0 0 0
        }
      }
    }
    JOINT r_shoulderBkRoot_JNT
    {
      OFFSET -9.30514 7.99801 -11.2048
      CHANNELS 6 Xposition Yposition Zposition Zrotation Xrotation Yrotation
      JOINT r_shoulderBkMid_JNT
      {
        OFFSET 0 0 0
        CHANNELS 6 Xposition Yposition Zposition Zrotation Xrotation Yrotation
        End Site
        {
          OFFSET 0 0 0
        }
      }
    }
  }
}
MOTION
Frames:	3
Frame Time:	0.0416667
0 0 0 0 0 -0 -9.91879e-015 58.1831 -42.9997 -0.501431 6.00133 90.0584 -0.323145 -1.55994 9.59625 -26.4062 61.2999 -67.9538 16.1374 -6.52219e-007 1.68645e-006 -26.2315 10.5543 59.9689 27.0969 1.77636e-014 -4.26326e-014 4.66791e-015 2.17421e-015 -76.5768 24.8414 1.77636e-014 7.10543e-015 -0.131701 -0.148471 -41.1613 6.77858 -7.10543e-015 -1.77636e-014 -3.79152e-022 0 -3.18055e-015 -19.5381 0.0453494 -0.0024471 -0.165371 -0.420921 -0.00933384 -19.4671 1.48168 -0.00137304 -1.40054 -0.0777185 -3.11239e-005 -18.2339 5.22048 -2.82823e-006 -17.6858 0.00019351 -6.44141e-005 -17.3659 8.0084 -1.78195e-005 -14.693 -0.533036 1.89126 -19.144 8.35871 -2.28706e-014 -14.5805 -0.537936 1.88721 -16.3943 7.24542 2.30926e-014 -21.4042 -0.609324 1.89426 -19.3877 2.40349 -3.73035e-014 5.53966 -1.48953 1.96763 -13.796 -11.6756 2.30926e-014 -11.2877 -0.0365563 0.127562 -15.825 14.8229 15.3879 90.9374 7.37471 -23.3328 6.55118 1.13687e-013 3.01981e-014 -7.71367e-009 -7.59931 2.05853 6.73503 0 -4.9738e-014 4.41391e-032 7.95139e-016 -3.18055e-015 1.34858 -27.5886 -1.42109e-014 92.7985 1.43125e-014 -1.59028e-014 -15.825 14.8229 -15.3879 -14.8222 2.85467 -6.13959 -2.40814 5.46468 -2.69372 -7.71367e-009 -7.59931 2.05853 -2.40922 6.0083 -1.85921 7.95139e-016 0 -1.98785e-016 4.72477 -9.87974 3.55271e-015 92.7985 3.50417e-015 -90 2.68891 -0.690234 4.02874 -180 7.01671e-015 180 0 0 -14.9226 -3.97569e-016 0 -1.59028e-015 0 0 3.94939 7.95139e-016 0 7.95139e-016 1.77636e-015 0 15.0019 3.97569e-016 3.18055e-015 7.95139e-016 -2.689 -0.690236 4.02875 7.95139e-016 0 7.95139e-016 9.35075e-005 -0.000392738 14.9226 3.97569e-016 3.18055e-015 7.95139e-016 6.0207 -9.81639 3.55271e-015 92.7985 3.50417e-015 -90 2.71301 -0.162748 3.99146 -180 7.01671e-015 180 -1.77636e-015 -2.84217e-014 -14.9599 -3.97569e-016 0 -1.59028e-015 0 -0.0431035 3.99141 7.95139e-016 0 7.95139e-016 0 0 14.9599 3.97569e-016 3.18055e-015 7.95139e-016 -2.71301 -0.162761 3.99141 7.95139e-016 0 7.95139e-016 1.77636e-015 0 14.9599 3.97569e-016 3.18055e-015 7.95139e-016 -7.85698 -6.72885 9.63956 34.106 19.9417 85.9622 -7.85684 -6.72882 -9.63956 -145.894 19.9417 85.9622 -0.582531 -4.58248 6.68612 39.3373 25.4875 -114.662 21.051 -3.50873e-008 -5.45966e-007 54.9294 -50.7733 123.107 33.1145 8.3753e-007 -2.8019e-007 110.554 7.01671e-015 180 29.9221 -4.26326e-014 0 25.0598 1.1263e-015 4.73886e-015 9.62649 2.13163e-014 1.06581e-014 29.859 -1.7467e-015 90 -0.181243 -4.50846 -6.75896 -36.7328 10.933 -19.1962 1.1653 -12.7157 -16.7361 78.4239 -58.3733 129.696 16.2308 -5.97551 28.2387 143.225 9.43483 151.138 26.7017 -9.19239 -9.89204 40.1466 13.9029 8.16935 4.44874 -7.74942 3.58114 29.859 -1.7467e-015 90 -0.323145 -1.55994 -9.59625 -62.7106 -9.24999 4.74057 13.2848 -5.74129 -7.13912 -12.7148 9.99732 42.328 14.815 16.9375 15.0957 -15.4415 15.179 -51.9777 23.6904 -6.58016 -3.54465 8.32075 1.15933 -49.8981 1.47758 -6.16068 -2.41079 7.95139e-016 -7.95139e-016 -1.11816e-014 2.82533 14.5514 -2.86993e-014 4.99157 -1.18028e-016 -2.40741 7.87756 -2.13163e-014 -1.33227e-015 19.1217 -1.98785e-015 -2.40741 6.52588 0 -1.77636e-015 -6.36111e-015 0 -1.59028e-015 -9.30511 7.998 11.2048 -6.8505 -4.18474e-016 -90 0 0 0 -1.41809e-016 -9.93923e-017 1.2424e-017 -9.30514 7.99801 -11.2048 173.149 4.18474e-016 -90 0 0 0 -1.14534e-017 0 -0 
0 0 0 0 0 -0 -9.91879e-015 58.1831 -42.9997 -0.501442 6.01287 90.0585 -0.323145 -1.55994 9.59625 -26.4062 61.2999 -67.9538 16.1374 -6.52001e-007 1.68636e-006 -26.2315 10.5543 59.9549 27.0969 7.10543e-015 -3.55271e-014 4.77426e-015 2.19284e-015 -76.5807 24.8414 3.55271e-015 7.10543e-015 -0.131689 -0.148491 -41.1549 6.77858 -7.10543e-015 -1.06581e-014 -1.05236e-038 1.89576e-022 3.18055e-015 -19.537 0.0552834 -0.00253345 -0.211816 -0.420909 -0.0097382 -19.4677 1.47549 -0.00136472 -1.4608 -0.0777135 -0.000112816 -18.2336 5.20981 -2.85699e-006 -17.7091 0.000190101 -6.33898e-005 -17.3596 8.01528 -1.81587e-005 -14.7304 -0.315502 1.70956 -19.144 8.35871 -2.30926e-014 -14.6606 -0.320554 1.70957 -16.3943 7.24542 2.30926e-014 -21.4585 -0.391803 1.71247 -19.3877 2.40349 -3.9968e-014 5.4028 -1.18156 1.66534 -13.796 -11.6756 2.4869e-014 -11.2878 0.0758286 -0.000830095 -15.825 14.8229 15.3879 90.9374 7.37471 -23.3328 6.55118 8.52651e-014 3.19744e-014 -7.71367e-009 -7.59931 2.05853 6.73503 2.84217e-014 -4.79616e-014 -6.36111e-015 7.95139e-016 3.18055e-015 1.34858 -27.5886 -1.42109e-014 92.7985 1.11319e-014 -1.90833e-014 -15.825 14.8229 -15.3879 -14.8222 2.85467 -6.13959 -2.40814 5.46468 -2.69372 -7.71366e-009 -7.59931 2.05853 -2.40922 6.0083 -1.85921 7.95139e-016 0 1.98785e-016 4.72477 -9.87974 0 92.7985 3.50417e-015 -90 2.68891 -0.690234 4.02874 -180 7.01671e-015 180 1.77636e-015 0 -14.9226 0 3.18055e-015 -0 0 0 3.94939 7.95139e-016 0 7.95139e-016 0 0 15.0019 3.97569e-016 0 7.95139e-016 -2.689 -0.690236 4.02875 7.95139e-016 0 7.95139e-016 9.35075e-005 -0.000392738 14.9226 3.97569e-016 0 7.95139e-016 6.0207 -9.81639 3.55271e-015 92.7985 3.50417e-015 -90 2.71301 -0.162748 3.99146 -180 7.01671e-015 180 0 -2.84217e-014 -14.9599 0 3.18055e-015 -0 0 -0.0431035 3.99141 7.95139e-016 0 7.95139e-016 0 0 14.9599 3.97569e-016 0 7.95139e-016 -2.71301 -0.162761 3.99141 7.95139e-016 0 7.95139e-016 -1.77636e-015 2.84217e-014 14.9599 3.97569e-016 0 7.95139e-016 -7.85698 -6.72885 9.63956 34.106 19.9417 85.9622 -7.85684 -6.72882 -9.63956 -145.894 19.9417 85.9622 -0.554272 -4.5618 6.70264 39.2605 25.4325 -114.353 21.051 -3.50218e-008 -5.47132e-007 54.9079 -50.7525 123.091 33.1145 8.3753e-007 -2.8019e-007 110.507 7.01671e-015 180 29.9221 2.84217e-014 -1.06581e-014 25.0382 1.12451e-015 4.73929e-015 9.62649 1.77636e-014 1.06581e-014 29.859 -1.7467e-015 90 -0.203366 -4.52985 -6.74401 -36.6794 10.6488 -19.1818 1.1653 -12.7157 -16.7361 78.4365 -58.3678 129.683 16.2308 -5.97551 28.2387 143.232 9.44809 151.093 26.7017 -9.19239 -9.89204 40.1439 13.9214 8.18078 4.44874 -7.74942 3.58114 29.859 -1.7467e-015 90 -0.323145 -1.55994 -9.59625 -62.7106 -9.24999 4.74057 13.2848 -5.74129 -7.13912 -12.729 9.99807 42.3304 14.815 16.9375 15.0957 -15.4444 15.1816 -51.977 23.6904 -6.58016 -3.54465 8.32695 1.16024 -49.8982 1.47758 -6.16068 -2.41079 -3.97569e-016 -7.95139e-016 -3.27995e-015 2.82533 14.5514 -5.93969e-015 4.99157 1.49089e-016 -5.25537e-015 7.87756 7.10543e-015 -2.05391e-015 19.1217 -1.68346e-015 7.0817e-016 6.52588 7.10543e-015 2.72005e-015 -1.27303e-014 7.45443e-017 -2.40741 -9.30511 7.998 11.2048 -6.8505 -4.18474e-016 -90 0 0 0 1.77722e-016 1.98785e-016 -2.48481e-017 -9.30514 7.99801 -11.2048 173.149 4.18474e-016 -90 0 0 0 9.12391e-018 -1.98785e-016 -1.2424e-017 
0 0 0 0 0 -0 -9.91879e-015 58.1831 -42.9997 -0.501473 6.04451 90.0588 -0.323145 -1.55994 9.59625 -26.4062 61.2999 -67.9538 16.1374 -6.51737e-007 1.68624e-006 -26.2314 10.5542 59.9163 27.0969 2.13163e-014 -3.55271e-014 5.09619e-015 2.2239e-015 -76.5913 24.8414 1.42109e-014 1.42109e-014 -0.131657 -0.148547 -41.1374 6.77858 -7.10543e-015 -1.42109e-014 -4.20943e-038 3.79152e-022 6.36111e-015 -19.534 0.0829439 -0.00277388 -0.341146 -0.420875 -0.0108641 -19.4693 1.45825 -0.00134154 -1.23278 -0.0777317 0.000196398 -18.2327 5.1801 -2.93559e-006 -17.6207 0.000203008 -6.72643e-005 -17.342 8.03445 -1.91099e-005 -14.9832 0.0304953 1.23263 -19.144 8.35871 -2.22045e-014 -14.7874 0.0259148 1.26151 -16.3943 7.24542 2.30926e-014 -21.6018 -0.045812 1.23533 -19.3877 2.40349 -3.90799e-014 5.14373 -0.565353 1.04689 -13.796 -11.6756 3.01981e-014 -11.2873 0.190174 -0.13102 -15.825 14.8229 15.3879 90.9374 7.37471 -23.3328 6.55118 8.52651e-014 1.77636e-014 -7.71367e-009 -7.59931 2.05853 6.73503 5.68434e-014 -5.32907e-014 0 0 -0 1.34858 -27.5886 -1.5099e-014 92.7985 1.17283e-014 -1.63003e-014 -15.825 14.8229 -15.3879 -14.8222 2.85467 -6.13959 -2.40814 5.46468 -2.69372 -7.71367e-009 -7.59931 2.05853 -2.40922 6.0083 -1.85921 -0 0 9.93923e-017 4.72477 -9.87974 -1.77636e-015 92.7985 3.50417e-015 -90 2.68891 -0.690234 4.02874 -180 7.01671e-015 -180 0 0 -14.9226 1.98785e-016 -3.18055e-015 7.95139e-016 1.77636e-015 -2.84217e-014 3.94939 1.98785e-016 0 -0 -8.88178e-016 2.84217e-014 15.0019 -5.96354e-016 -3.18055e-015 -3.97569e-016 -2.689 -0.690236 4.02875 1.98785e-016 0 -0 9.35075e-005 -0.000392738 14.9226 -5.96354e-016 -3.18055e-015 -3.97569e-016 6.0207 -9.81639 0 92.7985 3.50417e-015 -90 2.71301 -0.162748 3.99146 -180 7.01671e-015 -180 0 -2.84217e-014 -14.9599 1.98785e-016 -3.18055e-015 7.95139e-016 3.55271e-015 -0.0431035 3.99141 1.98785e-016 0 -0 -8.88178e-016 0 14.9599 -5.96354e-016 -3.18055e-015 -3.97569e-016 -2.71301 -0.162761 3.99141 1.98785e-016 0 -0 -1.77636e-015 0 14.9599 -5.96354e-016 -3.18055e-015 -3.97569e-016 -7.85698 -6.72885 9.63956 34.106 19.9417 85.9622 -7.85684 -6.72882 -9.63956 -145.894 19.9417 85.9622 -0.521057 -4.54246 6.71842 39.0517 25.4637 -113.7 21.051 -3.49418e-008 -5.4854e-007 54.8492 -50.6953 123.045 33.1145 8.3753e-007 -2.8019e-007 110.38 7.01671e-015 180 29.9221 -1.20792e-013 1.77636e-014 24.9789 1.11961e-015 4.74045e-015 9.62649 2.13163e-014 7.10543e-015 29.859 -1.7467e-015 90 -0.231693 -4.54968 -6.72973 -36.6397 10.085 -19.0042 1.1653 -12.7157 -16.7361 78.4711 -58.3527 129.649 16.2308 -5.97551 28.2387 143.252 9.48439 150.969 26.7017 -9.19239 -9.89204 40.1363 13.9723 8.2121 4.44874 -7.74942 3.58114 29.859 -1.7467e-015 90 -0.323145 -1.55994 -9.59625 -62.7106 -9.24999 4.74057 13.2848 -5.74129 -7.13912 -12.7678 10.0001 42.3371 14.815 16.9375 15.0957 -15.4523 15.1889 -51.9749 23.6904 -6.58016 -3.54465 8.34396 1.16275 -49.8986 1.47758 -6.16068 -2.41079 1.59028e-015 1.59028e-015 -8.54774e-015 2.82533 14.5514 2.20379e-014 4.99157 2.32951e-017 4.25926 7.87756 7.10543e-015 -1.77636e-015 19.1217 -7.95139e-016 4.25926 6.52588 -1.42109e-014 5.32907e-015 -3.18936e-015 0 -4.25926 -9.30511 7.998 11.2048 -6.8505 -4.18474e-016 -90 0 0 0 -4.50372e-017 -9.93923e-017 -1.2424e-017 -9.30514 7.99801 -11.2048 173.149 4.18474e-016 -90 0 0 0 1.94902e-016 -1.98785e-016 -1.2424e-017 
